<svg xmlns="http://www.w3.org/2000/svg" viewBox="0 0 272 272"><path fill="#72955f" stroke="#72955f" stroke-linejoin="straight" stroke-width="6" d="M52.503 159c-.006-45.737.111-90.725-.146-135.711-.038-6.833 1.968-8.952 8.913-8.917 52.234.264 104.471.236 156.706.016 6.488-.027 8.65 1.836 8.63 8.49-.227 74.729-.164 149.459-.23 224.189-.008 9.91-.137 9.923-10.108 9.924-51.986.004-103.973-.113-155.958.147-6.486.032-7.946-2.103-7.894-8.164.259-29.74.1-59.482.087-89.974m53.86 23.145c-6.847 6.956-8.286 15.883-9.056 25.199 4.523-13.241 17.385-17.86 26.447-27.535 1.085 11.817-8.725 28.028-18.782 32.532-9.783 4.381-12.167 10.046-8.341 20.279 1.934 5.176 4.808 9.825 8.12 14.28 2.658 3.574 5.845 4.95 10.227 4.939 32.995-.09 65.99-.145 98.984.066 5.959.039 7.685-2.129 7.671-7.905-.167-71.989-.2-143.978-.054-215.967.014-6.93-1.896-9.677-9.353-9.635-48.74.277-97.484.222-146.226.01-6.499-.029-8.664 1.98-8.61 8.6.277 33.493.12 66.989.11 100.483-.013 38.744.085 77.489-.166 116.23-.04 6.231 1.95 8.531 8.146 8.151 6.475-.397 12.999.092 19.49-.14 5.526-.198 11.223 1.06 17.458-1.336-10.717-12.922-12.968-27.034-10.193-42.7 1.394-7.866 1.068-17.794-5.783-22.251-15.083-9.814-14.16-26.416-21.24-40.75 6.973-.024 11.044 2.961 14.543 6.928 6.537 7.41 9.103 16.503 10.572 25.984.742 4.792 2.063 9.276 5.384 14.387 2.52-8.195 5.643-14.968 6.554-22.027 1.747-13.526-.214-26.155-11.859-35.76-10.072-8.308-16.723-19.153-19.8-31.956-.651-2.706-1.556-5.723 1.655-9.041 5.421 7.42 11.694 13.397 17.73 19.606 2.661 2.738 5.213 5.714 5.839 9.44 1.948 11.602 8.022 21.808 10.712 34.65 4.892-14.003 6.117-27.088 6.774-40.25.156-3.123-1.17-5.73-3.778-7.761-4.662-3.628-7.506-8.642-9.883-13.927-9.494-21.11-6.523-41.878 1.799-62.475.552-1.367 1.241-2.795 3.223-2.532 1.82 1.327 2.201 3.431 2.023 5.35-1.136 12.268 4.222 22.858 8.333 33.813 1.653 4.404 3.476 8.746 4.093 13.56 1.738 13.554-2.808 26.622-2.723 40.058.047 7.39-1.076 14.787-1.792 23.684 8.487-8.8 11.711-17.767 11.494-27.907-.28-13.134 5.72-24.625 8.43-37.654 7.55 8.984 7.461 22.36.412 32.724-2.576 3.787-5.745 7.31-3.742 14.318 8.205-9.075 18.179-15.018 19.152-27.613.264-3.421 1.722-6.286 3.805-8.798 7.788-9.394 15.928-18.527 20.722-29.993.08-.194.904-.077 2.385-.165.043 8.323-2.835 15.909-5.27 23.478-3.268 10.164-8.068 19.144-18.263 24.552-4.667 2.476-7.002 7.797-8.65 13.914 14.91-6.736 30.816-8.548 46.35-12.312-10.854 9.396-21.845 19.161-37.28 16.761-11.006-1.71-18.9 1.914-25.944 9.516-6.121 6.607-11.981 13.437-16.384 21.321-2.837 5.08-5.128 10.457-5.051 17.335 10.72-18.36 31.453-18.529 47.025-27.994-5.314 12.494-14.416 20.41-27.482 22.816-7.805 1.437-13.989 4.992-19.956 11.42z"/></svg>